<svg width="20" height="20" viewBox="0 0 20 20" fill="none" xmlns="http://www.w3.org/2000/svg">
<path fill-rule="evenodd" clip-rule="evenodd" d="M10 2C5.58172 2 2 5.58172 2 10C2 14.4183 5.58172 18 10 18H14V20H10C4.47715 20 0 15.5228 0 10C0 4.47715 4.47715 0 10 0C15.5228 0 20 4.47715 20 10V11C20 13.2091 18.2091 15 16 15C14.6917 15 13.5302 14.3719 12.8004 13.4009C11.9974 14.3709 10.8434 15 9.5 15C6.89347 15 5 12.6318 5 10C5 7.36818 6.89347 5 9.5 5C10.4461 5 11.2982 5.312 12 5.83536V5H14V10V11C14 12.1046 14.8954 13 16 13C17.1046 13 18 12.1046 18 11V10C18 5.58172 14.4183 2 10 2ZM12 10C12 8.21354 10.7595 7 9.5 7C8.24054 7 7 8.21354 7 10C7 11.7865 8.24054 13 9.5 13C10.7595 13 12 11.7865 12 10Z" fill="#FF5E00"/>
</svg>
