<svg width="18" height="20" viewBox="0 0 18 20" fill="none" xmlns="http://www.w3.org/2000/svg">
<path d="M8.70715 13.2071L14.2072 7.70709L12.793 6.29291L8.00006 11.0858L5.70715 8.79291L4.29297 10.2071L7.29297 13.2071C7.68347 13.5977 8.31665 13.5977 8.70715 13.2071Z" fill="#FF5E00"/>
<path fill-rule="evenodd" clip-rule="evenodd" d="M10.0589 0.271851C9.81653 0.185181 9.57465 0.0965576 9.33569 0.000671387L8.66589 0C8.54791 0.0475464 8.42914 0.0931396 8.30994 0.137573C8.18732 0.183289 8.06427 0.227783 7.9411 0.271851C7.47632 0.438049 6.81909 0.660095 6.05273 0.882019C4.50385 1.33051 2.57422 1.75897 0.900024 1.75897C0.402954 1.75897 0 2.1673 0 2.67102V9.96753C0 13.592 2.30371 16.1102 4.42303 17.6614C5.49493 18.4459 6.56104 19.0154 7.35626 19.3885C7.75513 19.5757 8.08905 19.7148 8.32574 19.8082C8.35547 19.8198 8.38544 19.832 8.41565 19.8443C8.60266 19.9202 8.79944 20 9 20C9.2005 20 9.39227 19.9222 9.58142 19.8455L9.58893 19.8424L9.59467 19.84C9.62122 19.8293 9.64777 19.8186 9.67426 19.8082C9.91095 19.7148 10.2449 19.5757 10.6437 19.3885C11.439 19.0154 12.5051 18.4459 13.5769 17.6614C15.6963 16.1102 18 13.592 18 9.96753V2.67102C18 2.1673 17.597 1.75897 17.1 1.75897C15.4258 1.75897 13.4961 1.33051 11.9473 0.882019C11.1809 0.660095 10.5237 0.438049 10.0589 0.271851ZM16 9.96753C16 12.6487 14.3064 14.6438 12.3983 16.0403C11.4725 16.718 10.46 17.2401 9.44507 17.7635C9.29669 17.8401 9.14825 17.9166 9 17.9937C8.85175 17.9166 8.70331 17.8401 8.55493 17.7635C7.54004 17.2401 6.52753 16.718 5.60175 16.0403C3.69366 14.6438 2 12.6487 2 9.96753V3.71844C3.63104 3.58502 5.29749 3.18909 6.6073 2.80988C7.41681 2.5755 8.20825 2.29871 9 2.0116C9.79175 2.29871 10.5832 2.5755 11.3927 2.80988C12.7025 3.18909 14.3689 3.58502 16 3.71844V9.96753Z" fill="#FF5E00"/>
</svg>
